<svg id="Capa_1" data-name="Capa 1" xmlns="http://www.w3.org/2000/svg" viewBox="0 0 380.09 86.99"><defs><style>.cls-1{fill:#237d26;}</style></defs><path d="M257.12,281.89l35.22-64.52H316q12.38,0,14.69,4.46t-.37,11.84a40.53,40.53,0,0,1-14.69,19.4q-10.17,7.31-20.93,7.3H279.11L272.22,273a17.07,17.07,0,0,1-15,8.89Zm27-30.65h14a21.63,21.63,0,0,0,12.83-4.11,23,23,0,0,0,8.39-11.08q3.1-8.4-8.34-8.41H297Z" transform="translate(-157.3 -196.26)"/><path d="M391.38,224.42,385,235.71a13.37,13.37,0,0,0-5.28-6.88c-2.25-1.38-5.33-2.08-9.26-2.08q-10.11,0-19.57,9.68a61.9,61.9,0,0,0-14.07,22.16q-2.7,7.34-.61,11.46t8.6,4.07q11.78,0,25.08-11.92L363.77,274q-11.17,9.21-24.12,9.21-22.11,0-12.61-25.72a72.73,72.73,0,0,1,19.84-29.76Q360.08,216,374.52,216q8.31,0,12.24,2.85C389.39,220.75,390.93,222.61,391.38,224.42Z" transform="translate(-157.3 -196.26)"/><path d="M369.66,281.89l35.22-64.52h41.39A19.7,19.7,0,0,1,429,227.64H409.54L400,245.17h30.49a17.52,17.52,0,0,1-15.38,9.13H395l-10.08,18.46h30a17.52,17.52,0,0,1-15.38,9.13Z" transform="translate(-157.3 -196.26)"/><path d="M423.58,281.89l35.1-64.52H476.5l-14.26,53.44,46-53.44H526l-30.53,55.92a16.51,16.51,0,0,1-14.49,8.6h0l31.23-57.22h.08L469,273.82a23.81,23.81,0,0,1-17.86,8.07h0l14.45-59L438.06,273.3a16.7,16.7,0,0,1-14.6,8.59Z" transform="translate(-157.3 -196.26)"/><path class="cls-1" d="M281.62,196.64l-29.13,53.82V196.27h-6c-3.95,0-7.06.81-9.35,2.44q-2.44,1.77-5.56,6.72l-29.14,46.25,4.4-41.42a17.62,17.62,0,0,0,.12-2q0-6.6-4.76-9.71a15.47,15.47,0,0,0-8.5-2.26h-27l-9.41,15.39h28.41l-6.42,70.57H188q9.41,0,14.24-7.51l30.06-46.8v54.31h7.63a14.21,14.21,0,0,0,13.26-7.76l35.14-63.53H529.44l7.95-14.68" transform="translate(-157.3 -196.26)"/></svg>